<svg width="800" height="600" viewBox="0 0 800 600" xmlns="http://www.w3.org/2000/svg">
  <defs>
    <linearGradient id="cardGrad" x1="0%" y1="0%" x2="100%" y2="100%">
      <stop offset="0%" style="stop-color:#2B7A78;stop-opacity:0.15" />
      <stop offset="100%" style="stop-color:#3AAFA9;stop-opacity:0.25" />
    </linearGradient>
    
    <filter id="shadow">
      <feDropShadow dx="0" dy="4" stdDeviation="8" flood-color="#000" flood-opacity="0.15"/>
    </filter>
  </defs>

  <!-- Основная карточка резюме -->
  <rect width="600" height="500" x="100" y="50" rx="12" 
        fill="#1F2937" 
        stroke="#3AAFA9" 
        stroke-width="1"
        stroke-opacity="0.3"
        filter="url(#shadow)" />

  <!-- Верхняя секция с фото -->
  <circle cx="180" cy="130" r="50" 
          fill="#3AAFA9" 
          fill-opacity="0.2"
          stroke="#3AAFA9"
          stroke-width="2" />

  <!-- Имя и должность -->
  <rect width="250" height="16" x="260" y="100" rx="8" 
        fill="#3AAFA9" fill-opacity="0.9" />
  <rect width="180" height="12" x="260" y="130" rx="6" 
        fill="#3AAFA9" fill-opacity="0.5" />

  <!-- Контактная информация -->
  <g transform="translate(260, 160)">
    <rect width="140" height="8" rx="4" fill="#3AAFA9" fill-opacity="0.3" />
    <rect width="120" height="8" y="20" rx="4" fill="#3AAFA9" fill-opacity="0.3" />
  </g>

  <!-- Основные секции -->
  <g transform="translate(140, 240)">
    <!-- Опыт работы -->
    <rect width="200" height="14" rx="7" fill="#3AAFA9" fill-opacity="0.8" />
    
    <g transform="translate(0, 30)">
      <rect width="400" height="10" rx="5" fill="#3AAFA9" fill-opacity="0.3" />
      <rect width="380" height="8" y="20" rx="4" fill="#3AAFA9" fill-opacity="0.2" />
      <rect width="360" height="8" y="35" rx="4" fill="#3AAFA9" fill-opacity="0.2" />
    </g>

    <!-- Навыки -->
    <g transform="translate(0, 120)">
      <rect width="200" height="14" rx="7" fill="#3AAFA9" fill-opacity="0.8" />
      
      <!-- Индикаторы навыков -->
      <g transform="translate(0, 30)">
        <g>
          <rect width="100" height="10" rx="5" fill="#3AAFA9" fill-opacity="0.4" />
          <rect width="200" height="6" x="120" y="2" rx="3" fill="#3AAFA9" fill-opacity="0.6" />
        </g>
        <g transform="translate(0, 25)">
          <rect width="90" height="10" rx="5" fill="#3AAFA9" fill-opacity="0.4" />
          <rect width="150" height="6" x="120" y="2" rx="3" fill="#3AAFA9" fill-opacity="0.6" />
        </g>
        <g transform="translate(0, 50)">
          <rect width="110" height="10" rx="5" fill="#3AAFA9" fill-opacity="0.4" />
          <rect width="180" height="6" x="120" y="2" rx="3" fill="#3AAFA9" fill-opacity="0.6" />
        </g>
      </g>
    </g>
  </g>

  <!-- Декоративные элементы -->
  <g transform="translate(620, 80)">
    <circle cx="0" cy="0" r="80" fill="none" stroke="#3AAFA9" stroke-width="1" stroke-opacity="0.1" />
    <circle cx="0" cy="0" r="60" fill="none" stroke="#3AAFA9" stroke-width="1" stroke-opacity="0.15" />
    <circle cx="0" cy="0" r="40" fill="none" stroke="#3AAFA9" stroke-width="1" stroke-opacity="0.2" />
  </g>

  <!-- Плавающие элементы -->
  <g fill="#3AAFA9" fill-opacity="0.3">
    <circle cx="90" cy="100" r="4" />
    <circle cx="70" cy="120" r="3" />
    <circle cx="110" cy="130" r="2" />
    <circle cx="700" cy="400" r="4" />
    <circle cx="680" cy="420" r="3" />
    <circle cx="720" cy="430" r="2" />
  </g>

  <!-- Соединительные линии -->
  <path d="M90 100 Q80 110 70 120" 
        stroke="#3AAFA9" 
        stroke-width="1"
        stroke-opacity="0.2"
        fill="none" />
  
  <path d="M700 400 Q690 410 680 420" 
        stroke="#3AAFA9" 
        stroke-width="1"
        stroke-opacity="0.2"
        fill="none" />
</svg> 